<svg xmlns="http://www.w3.org/2000/svg" viewBox="0 0 101.53 48.35"><defs><style>.cls-1{fill:#fc3c2b;}</style></defs><g id="Calque_4" data-name="Calque 4"><path class="cls-1" d="M34.34,44.71A4.15,4.15,0,0,1,31,43a18.19,18.19,0,0,1-2.64-5.57q-.63-1.91-1.05-3.72a29.29,29.29,0,0,1-.6-3.53,5.46,5.46,0,0,1-1.5,1.68,3.65,3.65,0,0,1-1.94.42c-2.08,0-4.29,0-6.62-.1L10.41,32c-.08.77-.16,1.54-.22,2.32s-.1,1.57-.1,2.33,0,1.36.1,2,.12,1.33.16,2A2.89,2.89,0,0,1,9,43.56,6.88,6.88,0,0,1,5,44.65c-1.36,0-2-.6-2-1.79a14.06,14.06,0,0,1,.57-3.24q.31-1.47.51-2.52a10.69,10.69,0,0,0,.19-1.68A2.56,2.56,0,0,0,3.16,33a1.51,1.51,0,0,1-.89-1.34,6,6,0,0,1,.35-1.85,9.1,9.1,0,0,1,.92-2,4.73,4.73,0,0,1,1.08-1.3,5.49,5.49,0,0,1,1.08-.45,7.17,7.17,0,0,1,1.59-.25,67.66,67.66,0,0,1,5.57-12.32,29.86,29.86,0,0,1,6.59-8,11.26,11.26,0,0,1,7.13-2.83,3.64,3.64,0,0,1,3.24,1.49q1,1.5,1,5V12a67.83,67.83,0,0,0,1,11.84,43.37,43.37,0,0,0,2.35,8.79A15.64,15.64,0,0,0,38,38.47a4.36,4.36,0,0,1,1,1.12,2,2,0,0,1,.26,1,3.18,3.18,0,0,1-.73,1.91,6,6,0,0,1-1.88,1.59A4.73,4.73,0,0,1,34.34,44.71Zm-22-19.29,5.48-.22c1.57-.06,2.88-.09,3.94-.09H26.2c-.09-1.19-.16-2.44-.23-3.76s-.09-2.69-.09-4.14V13.52a4.79,4.79,0,0,0-.42-2.45,1.75,1.75,0,0,0-1.55-.6q-3.12,0-6.24,4.07A36.76,36.76,0,0,0,12.32,25.42Z"/><path class="cls-1" d="M85,44.84a18.37,18.37,0,0,1-6.69-1,5.94,5.94,0,0,1-3.24-2.67,8.67,8.67,0,0,1-.89-4.07,19.12,19.12,0,0,1,.19-2.58c.13-1,.28-2.05.44-3.28A77.28,77.28,0,0,0,76,18.87a55,55,0,0,0-.29-6.08A11.7,11.7,0,0,0,74,8a5.56,5.56,0,0,1-.45-.79,1.87,1.87,0,0,1-.19-.67,2.29,2.29,0,0,1,.89-1.59,8,8,0,0,1,2.17-1.4A5.87,5.87,0,0,1,78.83,3a2.49,2.49,0,0,1,2.71,1.71,17.23,17.23,0,0,1,.54,4.91c0,.8-.09,2.09-.25,3.85s-.43,4-.77,6.71S80.47,25,80.3,27,80,30.39,80,31.53a9.43,9.43,0,0,0,.61,3.86,3.38,3.38,0,0,0,2,1.81,12,12,0,0,0,3.95.51,27.53,27.53,0,0,0,5.22-.48,23.35,23.35,0,0,0,4.84-1.5l.57-.19a2,2,0,0,1,.44-.06,1.39,1.39,0,0,1,1.09.7,3.3,3.3,0,0,1,.51,2c0,1.87-1,3.33-3.06,4.4Q92.13,44.83,85,44.84Z"/><path class="cls-1" d="M42.52,26.58v10.8a3.68,3.68,0,0,0,1.73,3.15l8.32,5.06a.88.88,0,0,0,1.31-.79V32.57L43.17,26.18A.44.44,0,0,0,42.52,26.58ZM49,38.32c.47-.16,1,.28,1.3,1s.07,1.41-.4,1.58-1.06-.28-1.31-1S48.49,38.49,49,38.32ZM45.27,31.4c.47-.17,1,.27,1.3,1s.07,1.42-.4,1.58-1.06-.27-1.31-1S44.8,31.56,45.27,31.4Z"/><path class="cls-1" d="M66.34,26.18,55.63,32.57V44.8a.88.88,0,0,0,1.32.79l8.31-5.06A3.69,3.69,0,0,0,67,37.38V26.58A.45.45,0,0,0,66.34,26.18ZM59.9,41.26c-.24.71-.83,1.15-1.3,1s-.65-.88-.41-1.59.84-1.14,1.31-1S60.15,40.56,59.9,41.26Zm2.72-5c-.25.71-.83,1.15-1.3,1s-.66-.88-.41-1.59.83-1.14,1.3-1S62.87,35.58,62.62,36.28Zm2.72-4.52c-.25.7-.84,1.14-1.31,1s-.65-.87-.4-1.58.83-1.15,1.3-1S65.58,31.05,65.34,31.76Z"/><path class="cls-1" d="M65.59,23.74l-9.07-5.51a3.42,3.42,0,0,0-1.76-.49v5h0a1.26,1.26,0,0,1,1.36,1.13A1.26,1.26,0,0,1,54.77,25h0v6l10.82-6.46A.46.46,0,0,0,65.59,23.74Z"/><path class="cls-1" d="M53.41,23.85a1.26,1.26,0,0,1,1.35-1.13v-5a3.37,3.37,0,0,0-1.76.49l-9.07,5.51a.47.47,0,0,0,0,.79L54.76,31V25A1.26,1.26,0,0,1,53.41,23.85Z"/></g></svg>