<svg xmlns="http://www.w3.org/2000/svg" viewBox="0 0 210 50"><defs><style>.cls-1{fill:#fc3c2b;}</style></defs><g id="Calque_4" data-name="Calque 4"><path class="cls-1" d="M29.26,40.6a3.52,3.52,0,0,1-2.84-1.44,15.22,15.22,0,0,1-2.24-4.73c-.37-1.08-.66-2.14-.9-3.16a28.27,28.27,0,0,1-.51-3A4.71,4.71,0,0,1,21.5,29.7a3.21,3.21,0,0,1-1.65.35c-1.77,0-3.64,0-5.63-.08l-5.3-.14c-.07.65-.13,1.31-.19,2s-.08,1.32-.08,2,0,1.15.08,1.73.1,1.14.14,1.68a2.46,2.46,0,0,1-1.19,2.43,5.85,5.85,0,0,1-3.35.92c-1.16,0-1.74-.5-1.74-1.51a12.13,12.13,0,0,1,.49-2.76c.18-.83.33-1.54.43-2.14a8.3,8.3,0,0,0,.17-1.43,2.19,2.19,0,0,0-.92-2.06A1.27,1.27,0,0,1,2,29.51a5.16,5.16,0,0,1,.3-1.57,8,8,0,0,1,.78-1.7A4,4,0,0,1,4,25.13a4.18,4.18,0,0,1,.92-.38,6.33,6.33,0,0,1,1.35-.22A58.22,58.22,0,0,1,11,14.07a25.46,25.46,0,0,1,5.6-6.82,9.65,9.65,0,0,1,6.06-2.41,3.11,3.11,0,0,1,2.76,1.28,7.77,7.77,0,0,1,.86,4.24V12.8a58.12,58.12,0,0,0,.82,10.06,36,36,0,0,0,2,7.46,13.17,13.17,0,0,0,3.3,5,3.48,3.48,0,0,1,.86.94,1.7,1.7,0,0,1,.22.84,2.68,2.68,0,0,1-.62,1.62,5,5,0,0,1-1.6,1.35A4.1,4.1,0,0,1,29.26,40.6ZM10.55,24.21,15.2,24c1.33-.06,2.45-.08,3.35-.08h3.79c-.08-1-.14-2.08-.19-3.19s-.08-2.29-.08-3.52V14.09A4,4,0,0,0,21.71,12a1.49,1.49,0,0,0-1.32-.51q-2.66,0-5.3,3.46A31,31,0,0,0,10.55,24.21Z"/><path class="cls-1" d="M46.84,40.7A7.73,7.73,0,0,1,43.4,40a9.43,9.43,0,0,1-2.51-1.78,8.25,8.25,0,0,1-1.27,1.64A2.29,2.29,0,0,1,38,40.6a2,2,0,0,1-1.14-.36.86.86,0,0,1-.43-.94q.81-4.34,1.38-8.76a70.89,70.89,0,0,0,.57-9c0-2.56-.09-4.95-.27-7.19A16.61,16.61,0,0,0,36.4,8.14c-.18-.36-.33-.7-.46-1a2.48,2.48,0,0,1-.19-.92,2.7,2.7,0,0,1,1.19-2,4,4,0,0,1,2.54-1c1.3,0,2.18.8,2.65,2.38a26.35,26.35,0,0,1,.71,7,66.24,66.24,0,0,1-.36,7.22c-.23,2.19-.49,4-.78,5.6a15.62,15.62,0,0,1,4.14-5.38,9,9,0,0,1,5.92-2.19,6.41,6.41,0,0,1,5.16,2.19A8.79,8.79,0,0,1,58.79,26a17.25,17.25,0,0,1-.86,5.38,16.62,16.62,0,0,1-2.44,4.74,12.12,12.12,0,0,1-3.76,3.35A9.72,9.72,0,0,1,46.84,40.7Zm1.24-5.84a5.93,5.93,0,0,0,4.76-2,6.65,6.65,0,0,0,1.68-4.49A4.65,4.65,0,0,0,53.3,25a4.35,4.35,0,0,0-3.22-1.22A5.7,5.7,0,0,0,46.51,25a10.23,10.23,0,0,0-2.65,3.19,18.35,18.35,0,0,0-1.67,4.25A8.66,8.66,0,0,0,45,34.24,8.18,8.18,0,0,0,48.08,34.86Z"/><path class="cls-1" d="M70.1,40.7a11.37,11.37,0,0,1-3.74-.59,7.29,7.29,0,0,1-2.81-1.68,3.53,3.53,0,0,1-1.08-2.6,3.16,3.16,0,0,1,.4-1.54,1.43,1.43,0,0,1,1.33-.73,2.29,2.29,0,0,1,1,.27,12.55,12.55,0,0,0,2.49,1,11.08,11.08,0,0,0,3.19.46,9.38,9.38,0,0,0,3.35-.55c1-.36,1.46-.86,1.46-1.51s-.37-.86-1.11-1.08a29.45,29.45,0,0,0-3.7-.7c-1.19-.22-2.35-.47-3.46-.76a6,6,0,0,1-2.76-1.49,4.11,4.11,0,0,1-1.08-3.11,7.58,7.58,0,0,1,1.1-3.87A8.74,8.74,0,0,1,68,19.12a10.9,10.9,0,0,1,5.41-1.24,13.82,13.82,0,0,1,3.24.38,7.23,7.23,0,0,1,2.6,1.13,2.28,2.28,0,0,1,1,1.9,2.72,2.72,0,0,1-.68,1.78,5.7,5.7,0,0,1-1.57,1.33,3.17,3.17,0,0,1-1.48.51,1.63,1.63,0,0,1-1-.59,5.35,5.35,0,0,0-2-1.06,8.37,8.37,0,0,0-2.19-.3,6.06,6.06,0,0,0-2.62.49c-.67.32-1,.74-1,1.24a1.28,1.28,0,0,0,.84,1.14,6.47,6.47,0,0,0,2.08.62L73,26.8a13.94,13.94,0,0,1,5,1.49A3.9,3.9,0,0,1,79.83,32a8.17,8.17,0,0,1-1.16,4.08,9.12,9.12,0,0,1-3.35,3.32A10.06,10.06,0,0,1,70.1,40.7Z"/><path class="cls-1" d="M119.64,40.7a15.69,15.69,0,0,1-5.68-.81,5.12,5.12,0,0,1-2.76-2.27,7.48,7.48,0,0,1-.75-3.46,16.36,16.36,0,0,1,.16-2.19c.11-.81.23-1.74.37-2.79a66,66,0,0,0,1-10.54,44.75,44.75,0,0,0-.25-5.17,9.94,9.94,0,0,0-1.43-4.08,5.63,5.63,0,0,1-.38-.68,1.55,1.55,0,0,1-.16-.57,1.93,1.93,0,0,1,.76-1.35,6.79,6.79,0,0,1,1.84-1.19,5.06,5.06,0,0,1,2-.49,2.12,2.12,0,0,1,2.3,1.47,14.41,14.41,0,0,1,.46,4.16c0,.69-.07,1.78-.22,3.27s-.36,3.4-.64,5.71-.51,4.16-.65,5.79-.22,2.91-.22,3.89a8.14,8.14,0,0,0,.51,3.27,2.9,2.9,0,0,0,1.71,1.54,10.11,10.11,0,0,0,3.35.44,23.57,23.57,0,0,0,4.44-.41A19.71,19.71,0,0,0,129.54,33a3.36,3.36,0,0,1,.48-.16,1.48,1.48,0,0,1,.38-.06,1.18,1.18,0,0,1,.92.6,2.78,2.78,0,0,1,.43,1.68,4.12,4.12,0,0,1-2.59,3.73Q125.7,40.69,119.64,40.7Z"/><path class="cls-1" d="M139.54,40.7a5.51,5.51,0,0,1-4.19-1.56,6.39,6.39,0,0,1-1.49-4.55,16.6,16.6,0,0,1,.6-4.33,16.91,16.91,0,0,0,.43-1.84,10.29,10.29,0,0,0,.16-1.83c0-1.59-.48-2.62-1.46-3.09s-1.4-1-1.4-1.62a2.69,2.69,0,0,1,.73-1.73,6,6,0,0,1,1.81-1.43,4.59,4.59,0,0,1,2.16-.57c2.06,0,3.08,1.68,3.08,5a16.58,16.58,0,0,1-.24,3c-.16.92-.35,1.8-.56,2.63a17.14,17.14,0,0,0-.36,1.73,9.82,9.82,0,0,0-.13,1.51,2.36,2.36,0,0,0,2.65,2.7q2.49,0,4.65-2.65a21.14,21.14,0,0,0,3.57-7.41l-.05-1a6.29,6.29,0,0,1,.94-4.11,3.64,3.64,0,0,1,3.11-1.41c1.19,0,1.79.38,1.79,1.14a4.67,4.67,0,0,1-.14,1c-.09.4-.22.86-.4,1.41a41.51,41.51,0,0,0-.92,4.24,24.3,24.3,0,0,0-.38,4.14,8.08,8.08,0,0,0,.65,3.49,3.49,3.49,0,0,0,2.43,1.86,1.53,1.53,0,0,1,.79.3,1.31,1.31,0,0,1,.29,1,3.86,3.86,0,0,1-1.08,2.54,3.94,3.94,0,0,1-3.14,1.25q-3.94,0-3.94-5.57c0-.65.05-1.63.16-2.92l-.11-.06Q146.14,40.7,139.54,40.7Z"/><path class="cls-1" d="M167.51,40.7a6.42,6.42,0,0,1-5.12-2.16,8.75,8.75,0,0,1-1.86-5.9,16.93,16.93,0,0,1,.89-5.4,16.06,16.06,0,0,1,2.52-4.76,12.8,12.8,0,0,1,3.78-3.36,9.26,9.26,0,0,1,4.71-1.24,7.93,7.93,0,0,1,2.89.49,8.7,8.7,0,0,1,2.25,1.24q-.06-3.67-.38-6.6a16,16,0,0,0-1.57-5.41c-.14-.29-.26-.55-.35-.78a1.92,1.92,0,0,1-.14-.68,2,2,0,0,1,.63-1.4,4.91,4.91,0,0,1,1.54-1.09A4.19,4.19,0,0,1,179,3.22a2.39,2.39,0,0,1,2.19,1.27A8.78,8.78,0,0,1,182.16,8a49.79,49.79,0,0,1,.22,5,66,66,0,0,1-.38,7.41q-.37,3.3-.7,5.78c-.15,1.09-.27,2-.38,2.82a14.54,14.54,0,0,0-.16,1.94c0,2.57,1.1,4.08,3.3,4.55a1,1,0,0,1,.86,1.13,4.36,4.36,0,0,1-.35,1.52,3.92,3.92,0,0,1-1.27,1.65,4.22,4.22,0,0,1-2.65.73,3.19,3.19,0,0,1-3.14-1.57,10.78,10.78,0,0,1-.81-4.76,15.57,15.57,0,0,1-3.84,4.65A8.23,8.23,0,0,1,167.51,40.7Zm1.67-5.78a5.57,5.57,0,0,0,3-1,10,10,0,0,0,2.71-2.65,13.66,13.66,0,0,0,1.27-2.35c.38-.88.73-1.78,1.05-2.68a9,9,0,0,0-6.11-2.49,6.23,6.23,0,0,0-4.65,1.76,6,6,0,0,0-1.73,4.36,5.1,5.1,0,0,0,1.3,3.62A4.1,4.1,0,0,0,169.18,34.92Z"/><path class="cls-1" d="M83.53,25.19v9.18A3.13,3.13,0,0,0,85,37.05l7.06,4.29a.74.74,0,0,0,1.12-.67V30.28l-9.1-5.43A.37.37,0,0,0,83.53,25.19Zm5.47,10c.41-.14.9.23,1.11.83s.06,1.21-.34,1.35-.9-.23-1.11-.84S88.6,35.31,89,35.17Zm-3.13-5.89c.4-.14.9.24,1.11.84s0,1.2-.35,1.34-.9-.23-1.11-.83S85.47,29.42,85.87,29.28Z"/><path class="cls-1" d="M103.13,22.78l-7.7-4.68a2.83,2.83,0,0,0-3,0l-7.71,4.68a.39.39,0,0,0,0,.67l9.2,5.49,9.2-5.49A.39.39,0,0,0,103.13,22.78Zm-9.19,1a1,1,0,1,1,1.16-1A1.07,1.07,0,0,1,93.94,23.83Z"/><path class="cls-1" d="M103.78,24.85l-9.11,5.43V40.67a.75.75,0,0,0,1.12.67l7.07-4.29a3.14,3.14,0,0,0,1.47-2.68V25.19A.37.37,0,0,0,103.78,24.85ZM98.31,37.67c-.22.6-.71,1-1.11.83s-.56-.74-.35-1.34.71-1,1.11-.84S98.52,37.07,98.31,37.67Zm2.3-4.23c-.21.6-.7,1-1.1.83s-.56-.74-.35-1.34.71-1,1.11-.84S100.82,32.83,100.61,33.44Zm2.31-3.85c-.21.6-.7,1-1.11.83s-.55-.74-.34-1.34.71-1,1.11-.84S103.13,29,102.92,29.59Z"/><path class="cls-1" d="M187.2,25.19v9.18a3.13,3.13,0,0,0,1.48,2.68l7.06,4.29a.74.74,0,0,0,1.12-.67V30.28l-9.11-5.43A.37.37,0,0,0,187.2,25.19Zm5.47,10c.4-.14.9.23,1.11.83s.06,1.21-.35,1.35-.89-.23-1.1-.84S192.27,35.31,192.67,35.17Zm-3.13-5.89c.4-.14.89.24,1.1.84s.06,1.2-.34,1.34-.9-.23-1.11-.83S189.14,29.42,189.54,29.28Z"/><path class="cls-1" d="M206.8,22.78l-7.7-4.68a2.85,2.85,0,0,0-3,0l-7.7,4.68a.39.39,0,0,0,0,.67l9.2,5.49,9.2-5.49A.39.39,0,0,0,206.8,22.78Zm-9.19,1a1,1,0,1,1,1.16-1A1.07,1.07,0,0,1,197.61,23.83Z"/><path class="cls-1" d="M207.44,24.85l-9.1,5.43V40.67a.74.74,0,0,0,1.12.67l7.06-4.29A3.13,3.13,0,0,0,208,34.37V25.19A.37.37,0,0,0,207.44,24.85ZM202,37.67c-.21.6-.7,1-1.1.83s-.56-.74-.35-1.34.71-1,1.11-.84S202.18,37.07,202,37.67Zm2.31-4.23c-.21.6-.71,1-1.11.83s-.55-.74-.34-1.34.71-1,1.11-.84S204.49,32.83,204.28,33.44Zm2.31-3.85c-.21.6-.71,1-1.11.83s-.55-.74-.34-1.34.7-1,1.11-.84S206.8,29,206.59,29.59Z"/></g></svg>